#!OML:ASF H:\ManfredETheater\Project 1\Capture day 1\Session 1\subject.ASF
:FULLY-SPECIFIED
:DEGREES
193
root -6.03573 8.65987 -10.4232 9.22213 69.8596 5.76086
lowerback 61.9133 -6.29938 2.15348
upperback 12.504 -2.54179 4.19897
thorax -7.2536 -0.487882 4.75877
lowerneck 7.75278 -14.9499 -12.1174
upperneck -21.9225 -19.0562 21.6358
head -4.27644 -10.5085 9.45029
rclavicle 2.90226e-014 -3.89618e-014
rhumerus -11.194 -7.74084 -42.6059
rradius 96.3767
rwrist -8.07811
rhand -28.0933 -11.145
rfingers 7.12502
rthumb -1.47607 -41.1196
lclavicle 2.90226e-014 -3.89618e-014
lhumerus -10.7704 11.5357 45.397
lradius 93.1929
lwrist 10.1788
lhand -23.832 -0.175075
lfingers 7.12502
lthumb 2.63957 29.7883
rfemur -96.5747 -53.7376 14.099
rtibia 133.204
rfoot -33.318 -2.45856
rtoes -36.204
lfemur -84.2078 33.6343 9.55489
ltibia 131.036
lfoot -12.3192 -60.1851
ltoes 8.82699
194
root -6.04639 8.71789 -10.3229 10.7284 69.6652 6.86968
lowerback 61.6505 -6.31518 2.15504
upperback 12.5514 -2.59558 4.13765
thorax -7.19458 -0.509673 4.70587
lowerneck 7.7844 -14.9522 -12.1595
upperneck -22.0843 -19.0817 21.5068
head -4.33874 -10.5071 9.43434
rclavicle 7.95139e-015 -8.44835e-014
rhumerus -11.184 -7.82005 -42.5288
rradius 96.9355
rwrist -7.69759
rhand -28.1204 -10.8759
rfingers 7.12502
rthumb -1.50216 -40.8504
lclavicle 7.95139e-015 -8.44835e-014
lhumerus -11.2352 12.1526 45.7336
lradius 93.4528
lwrist 10.1246
lhand -24.0282 -0.282614
lfingers 7.12502
lthumb 2.45014 29.6831
rfemur -97.1691 -53.4399 14.839
rtibia 133.281
rfoot -33.5576 -2.74575
rtoes -36.443
lfemur -83.8224 33.1791 9.57551
ltibia 130.335
lfoot -12.4196 -59.7905
ltoes 7.58347
195
root -6.05678 8.77995 -10.2222 12.1943 69.451 7.93571
lowerback 61.3841 -6.34028 2.1724
upperback 12.6038 -2.6535 4.05773
thorax -7.12944 -0.531612 4.62696
lowerneck 7.81549 -14.9529 -12.2314
upperneck -22.2175 -19.1096 21.3932
head -4.38683 -10.506 9.42389
rclavicle -3.33958e-014 8.74653e-015
rhumerus -11.2044 -7.88913 -42.4928
rradius 97.4598
rwrist -7.38758
rhand -28.1511 -10.641
rfingers 7.12502
rthumb -1.53188 -40.6153
lclavicle -3.33958e-014 8.74653e-015
lhumerus -11.7134 12.7621 46.0779
lradius 93.6887
lwrist 9.98918
lhand -24.1887 -0.416062
lfingers 7.12502
lthumb 2.29516 29.5513
rfemur -97.6876 -53.0841 15.514
rtibia 133.329
rfoot -33.7531 -3.00792
rtoes -36.7136
lfemur -83.4504 32.7504 9.57109
ltibia 129.629
lfoot -12.4439 -59.3426
ltoes 6.27836
196
root -6.06658 8.84603 -10.1212 13.5944 69.2288 8.9486
lowerback 61.1314 -6.38729 2.21537
upperback 12.6573 -2.72216 3.95603
thorax -7.06257 -0.555825 4.51764
lowerneck 7.85117 -14.9516 -12.3323
upperneck -22.3176 -19.1399 21.2945
head -4.4203 -10.5052 9.41883
rclavicle -2.38542e-014 1.69961e-013
rhumerus -11.2499 -7.93691 -42.5121
rradius 97.9403
rwrist -7.17818
rhand -28.2091 -10.4424
rfingers 7.12502
rthumb -1.58783 -40.4162
lclavicle -2.38542e-014 1.69961e-013
lhumerus -12.2016 13.3645 46.4277
lradius 93.9032
lwrist 9.79595
lhand -24.2981 -0.55959
lfingers 7.12502
lthumb 2.18944 29.4089
rfemur -98.1074 -52.6891 16.098
rtibia 133.346
rfoot -33.8989 -3.19608
rtoes -36.9556
lfemur -83.099 32.3496 9.53596
ltibia 128.937
lfoot -12.4339 -58.8124
ltoes 4.83577
197
root -6.07571 8.91591 -10.0208 14.9395 69.0355 9.94121
lowerback 60.9197 -6.49391 2.30697
upperback 12.7025 -2.82691 3.82545
thorax -7.00376 -0.591713 4.37184
lowerneck 7.88131 -14.946 -12.4626
upperneck -22.3773 -19.1697 21.2039
head -4.43656 -10.5023 9.41554
rclavicle 1.66979e-014 -4.87022e-014
rhumerus -11.3162 -7.95427 -42.6065
rradius 98.3705
rwrist -7.07238
rhand -28.3077 -10.28
rfingers 7.12502
rthumb -1.68307 -40.2532
lclavicle 1.66979e-014 -4.87022e-014
lhumerus -12.6948 13.9684 46.7808
lradius 94.088
lwrist 9.57071
lhand -24.3364 -0.709861
lfingers 7.12502
lthumb 2.15251 29.259
rfemur -98.4006 -52.3288 16.5605
rtibia 133.331
rfoot -34.0016 -3.27587
rtoes -37.1536
lfemur -82.8063 31.9423 9.43679
ltibia 128.282
lfoot -12.3998 -58.1436
ltoes 3.19201
198
root -6.08398 8.98975 -9.92228 16.2382 68.9346 10.9766
lowerback 60.8238 -6.71678 2.48342
upperback 12.7206 -2.99945 3.662
thorax -6.97434 -0.650277 4.18525
lowerneck 7.90201 -14.9365 -12.6102
upperneck -22.3934 -19.1986 21.1117
head -4.43666 -10.4971 9.40894
rclavicle -3.33958e-014 4.37326e-015
rhumerus -11.3954 -7.93314 -42.7862
rradius 98.7329
rwrist -7.05388
rhand -28.4465 -10.1664
rfingers 7.12502
rthumb -1.81715 -40.1384
lclavicle -3.33958e-014 4.37326e-015
lhumerus -13.1864 14.5713 47.1421
lradius 94.2509
lwrist 9.34102
lhand -24.3119 -0.835308
lfingers 7.12502
lthumb 2.17612 29.1333
rfemur -98.4921 -52.1512 16.8512
rtibia 133.277
rfoot -34.0959 -3.18785
rtoes -37.2953
lfemur -82.6011 31.4442 9.22964
ltibia 127.691
lfoot -12.4299 -57.2417
ltoes 1.19921
199
root -6.09127 9.06709 -9.82597 17.5384 68.9407 12.1185
lowerback 60.8511 -7.06624 2.74101
upperback 12.7085 -3.25133 3.46528
thorax -6.97861 -0.736093 3.96451
lowerneck 7.91605 -14.9247 -12.7728
upperneck -22.367 -19.2289 21.0158
head -4.42148 -10.4907 9.3984
rclavicle -2.62396e-014 -3.69739e-014
rhumerus -11.4846 -7.8682 -43.0333
rradius 99.0207
rwrist -7.14028
rhand -28.6222 -10.1081
rfingers 7.12502
rthumb -1.98688 -40.0786
lclavicle -2.62396e-014 -3.69739e-014
lhumerus -13.6732 15.1688 47.5151
lradius 94.3957
lwrist 9.13967
lhand -24.2303 -0.914184
lfingers 7.12502
lthumb 2.25491 29.0536
rfemur -98.3636 -52.1919 16.9372
rtibia 133.188
rfoot -34.191 -2.89858
rtoes -37.372
lfemur -82.5023 30.8353 8.88705
ltibia 127.19
lfoot -12.512 -56.0534
ltoes -1.17302
200
root -6.09787 9.14585 -9.73019 18.8673 69.0039 13.357
lowerback 60.934 -7.47764 3.01948
upperback 12.6847 -3.55264 3.24752
thorax -6.99733 -0.839498 3.73476
lowerneck 7.93327 -14.9089 -12.9461
upperneck -22.302 -19.258 20.9159
head -4.3949 -10.4826 9.38493
rclavicle 1.11319e-014 6.32135e-014
rhumerus -11.5805 -7.7519 -43.3432
rradius 99.2218
rwrist -7.30586
rhand -28.8293 -10.1047
rfingers 7.12502
rthumb -2.18682 -40.0733
lclavicle 1.11319e-014 6.32135e-014
lhumerus -14.1502 15.7568 47.9012
lradius 94.5208
lwrist 8.99609
lhand -24.1051 -0.938468
lfingers 7.12502
lthumb 2.37585 29.028
rfemur -98.1127 -52.3716 16.8866
rtibia 133.083
rfoot -34.2738 -2.45792
rtoes -37.4081
lfemur -82.5381 30.2283 8.39788
ltibia 126.8
lfoot -12.4847 -54.584
ltoes -3.7771
201
root -6.10398 9.22489 -9.63513 20.2451 69.1211 14.7087
lowerback 61.065 -7.94577 3.30736
upperback 12.6514 -3.90482 3.0062
thorax -7.02872 -0.9611 3.49879
lowerneck 7.94271 -14.8891 -13.1138
upperneck -22.1921 -19.2829 20.8089
head -4.35579 -10.472 9.36403
rclavicle 4.77083e-015 -1.55052e-014
rhumerus -11.6765 -7.58883 -43.7121
rradius 99.3312
rwrist -7.54562
rhand -29.0416 -10.1547
rfingers 7.12502
rthumb -2.39185 -40.121
lclavicle 4.77083e-015 -1.55052e-014
lhumerus -14.6204 16.3189 48.2802
lradius 94.6441
lwrist 8.9533
lhand -23.959 -0.895996
lfingers 7.12502
lthumb 2.51693 29.0689
rfemur -97.7624 -52.6929 16.7269
rtibia 132.969
rfoot -34.3519 -1.91834
rtoes -37.4179
lfemur -82.7432 29.6358 7.72999
ltibia 126.54
lfoot -12.3818 -52.7838
ltoes -6.62109
202
root -6.11017 9.30332 -9.54029 21.7126 69.2749 16.1738
lowerback 61.1732 -8.43842 3.58263
upperback 12.624 -4.29228 2.75225
thorax -7.05573 -1.0964 3.26959
lowerneck 7.95203 -14.8674 -13.276
upperneck -22.0425 -19.306 20.7016
head -4.30568 -10.4612 9.33895
rclavicle 7.15625e-015 2.78299e-014
rhumerus -11.7765 -7.38373 -44.1165
rradius 99.3418
rwrist -7.83654
rhand -29.2413 -10.2415
rfingers 7.12502
rthumb -2.58472 -40.2056
lclavicle 7.15625e-015 2.78299e-014
lhumerus -15.0738 16.8394 48.6553
lradius 94.7604
lwrist 9.02458
lhand -23.8217 -0.788519
lfingers 7.12502
lthumb 2.64959 29.1748
rfemur -97.3743 -53.0775 16.5087
rtibia 132.858
rfoot -34.4098 -1.36964
rtoes -37.4208
lfemur -83.1627 29.0926 6.86656
ltibia 126.418
lfoot -12.1653 -50.6493
ltoes -9.56589
203
root -6.11659 9.38083 -9.44515 23.2228 69.4416 17.7197
lowerback 61.2899 -8.9302 3.82161
upperback 12.5991 -4.69826 2.48693
thorax -7.08401 -1.2385 3.0521
lowerneck 7.96912 -14.8433 -13.4274
upperneck -21.8569 -19.3255 20.5995
head -4.24724 -10.4505 9.31202
rclavicle 2.8625e-014 -8.74653e-015
rhumerus -11.8863 -7.14256 -44.5561
rradius 99.2578
rwrist -8.17077
rhand -29.4094 -10.3606
rfingers 7.12502
rthumb -2.74712 -40.3227
lclavicle 2.8625e-014 -8.74653e-015
lhumerus -15.505 17.3013 49.0112
lradius 94.8676
lwrist 9.23012
lhand -23.7145 -0.629336
lfingers 7.12502
lthumb 2.75308 29.3326
rfemur -96.9312 -53.4931 16.2582
rtibia 132.756
rfoot -34.4647 -0.894463
rtoes -37.4241
lfemur -83.7419 28.6085 5.83668
ltibia 126.433
lfoot -11.9205 -48.1932
ltoes -12.5215
204
root -6.12414 9.45865 -9.34798 24.6371 69.5838 19.2414
lowerback 61.4922 -9.36364 3.9803
upperback 12.5697 -5.07428 2.22717
thorax -7.12286 -1.36758 2.86441
lowerneck 7.99209 -14.8238 -13.5496
upperneck -21.6414 -19.3489 20.4952
head -4.18363 -10.4443 9.27857
rclavicle 2.8625e-014 -4.90998e-014
rhumerus -12.0213 -6.88515 -45.0016
rradius 99.0761
rwrist -8.52547
rhand -29.5382 -10.4736
rfingers 7.12502
rthumb -2.87145 -40.434
lclavicle 2.8625e-014 -4.90998e-014
lhumerus -15.8879 17.673 49.3629
lradius 94.9687
lwrist 9.56398
lhand -23.6533 -0.426325
lfingers 7.12502
lthumb 2.81223 29.5349
rfemur -96.3399 -53.8441 15.9704
rtibia 132.661
rfoot -34.5353 -0.582049
rtoes -37.4019
lfemur -84.3604 28.2115 4.70729
ltibia 126.567
lfoot -11.7315 -45.4765
ltoes -15.2351
